<svg width="160" height="44" viewBox="0 0 160 44" fill="none" xmlns="http://www.w3.org/2000/svg">
<g clip-path="url(#clip0_401_7383)">
<path d="M17.5862 6.77151V0L11.7241 3.38081L17.5862 6.77151Z" fill="#5DC4E9"/>
<path d="M17.5862 40.6192V33.8477L11.7241 37.2285L17.5862 40.6192Z" fill="#009BC0"/>
<path d="M23.4482 37.2285V44L29.3103 40.6192L23.4482 37.2285Z" fill="#009BC0"/>
<path d="M5.86205 33.8477V27.0762L0 30.457L5.86205 33.8477Z" fill="#5DC4E9"/>
<path d="M5.86205 20.3047V13.543L0 16.9238L5.86205 20.3047Z" fill="#5DC4E9"/>
<path d="M5.86206 13.543V20.3047L11.7241 16.9238L5.86206 13.543Z" fill="#009BC0"/>
<path d="M17.5862 20.3047V13.543L11.7241 16.9238L17.5862 20.3047Z" fill="#5DC4E9"/>
<path d="M17.5862 20.3047V27.0762L23.4482 23.6954L17.5862 20.3047Z" fill="#009BC0"/>
<path d="M17.5862 13.543V20.3047L23.4482 16.9238L17.5862 13.543Z" fill="#009BC0"/>
<path d="M35.1723 23.6953V16.9238L29.3102 20.3046L35.1723 23.6953Z" fill="#009BC0"/>
<path d="M11.7241 10.1523V16.9238L17.5862 13.543L11.7241 10.1523Z" fill="#009BC0"/>
<path d="M23.4482 16.9238V10.1523L17.5862 13.543L23.4482 16.9238Z" fill="#5DC4E9"/>
<path d="M23.4482 10.1523V16.9238L29.3103 13.543L23.4482 10.1523Z" fill="#009BC0"/>
<path d="M11.7241 23.6953V30.457L17.5862 27.0762L11.7241 23.6953Z" fill="#009BC0"/>
<path d="M17.5862 33.8477V27.0762L11.7241 30.457L17.5862 33.8477Z" fill="#5DC4E9"/>
<path d="M23.4482 30.457V23.6953L17.5862 27.0762L23.4482 30.457Z" fill="#5DC4E9"/>
<path d="M23.4482 23.6953V30.457L29.3103 27.0762L23.4482 23.6953Z" fill="#009BC0"/>
<path d="M35.1723 30.457V23.6953L29.3102 27.0762L35.1723 30.457Z" fill="#5DC4E9"/>
<path d="M35.1723 23.6953V30.457L41.0344 27.0762L35.1723 23.6953Z" fill="#009BC0"/>
<path d="M29.3103 20.3047V13.543L23.4482 16.9238L29.3103 20.3047Z" fill="#5DC4E9"/>
<path fill-rule="evenodd" clip-rule="evenodd" d="M56.1788 28.3612H51.5325L50.9296 30.4571H46.9064L51.6315 15.9649H56.0702L60.7953 30.4571H56.7817L56.1788 28.3612ZM55.2892 25.1782L53.8557 20.1662L52.4226 25.1782H55.2892Z" fill="#333333"/>
<path fill-rule="evenodd" clip-rule="evenodd" d="M70.6017 25.3659C70.2494 25.9246 69.7581 26.3823 69.1759 26.6942C68.5936 27.0061 67.9406 27.1615 67.2803 27.1453C66.7559 27.1647 66.233 27.0758 65.7444 26.8839C65.2559 26.6921 64.8123 26.4014 64.4412 26.0303C64.0701 25.6592 63.7796 25.2155 63.5878 24.727C63.3959 24.2385 63.3068 23.7156 63.3262 23.1911C63.3053 22.6663 63.3931 22.1427 63.5844 21.6535C63.7757 21.1643 64.0664 20.72 64.4378 20.3486C64.8092 19.9771 65.2538 19.6868 65.743 19.4954C66.2322 19.3041 66.7555 19.2161 67.2803 19.2369C67.936 19.2202 68.5848 19.3724 69.1648 19.6788C69.7447 19.9853 70.2364 20.4356 70.5921 20.9867L74.0022 19.5731C73.3476 18.3648 72.3756 17.3579 71.1911 16.6611C70.0065 15.9643 68.6545 15.6041 67.2803 15.619C66.2813 15.6058 65.2897 15.7921 64.3635 16.1668C63.4373 16.5416 62.5951 17.0972 61.8863 17.8014C61.1775 18.5056 60.6163 19.3442 60.2355 20.268C59.8547 21.1917 59.6617 22.1821 59.6684 23.1812C59.663 24.1795 59.8571 25.169 60.2384 26.0916C60.6198 27.0142 61.181 27.8513 61.8897 28.5545C62.5984 29.2576 63.4403 29.8125 64.3659 30.1867C65.2914 30.5608 66.2821 30.747 67.2803 30.7338C68.6564 30.7516 70.0112 30.3923 71.1978 29.6953C72.3845 28.9983 73.3578 27.9902 74.0124 26.7796L70.6017 25.3659Z" fill="#333333"/>
<path fill-rule="evenodd" clip-rule="evenodd" d="M90.2146 23.2109C90.208 22.2126 90.4002 21.2229 90.7804 20.2998C91.1605 19.3767 91.721 18.5388 92.4287 17.8347C93.1365 17.1307 93.9774 16.5748 94.9025 16.1994C95.8276 15.8241 96.8182 15.6368 97.8165 15.6487C98.8155 15.6355 99.8071 15.8218 100.733 16.1965C101.66 16.5713 102.502 17.1269 103.21 17.8311C103.919 18.5353 104.48 19.3739 104.861 20.2977C105.242 21.2214 105.435 22.2118 105.428 23.2109C105.435 24.21 105.242 25.2004 104.861 26.1242C104.48 27.0479 103.919 27.8865 103.21 28.5907C102.502 29.2949 101.66 29.8505 100.733 30.2253C99.8071 30.6001 98.8155 30.7863 97.8165 30.7732C96.8182 30.785 95.8276 30.5978 94.9025 30.2224C93.9774 29.8471 93.1365 29.2911 92.4287 28.5871C91.721 27.883 91.1605 27.0451 90.7804 26.122C90.4002 25.1989 90.208 24.2092 90.2146 23.2109ZM101.741 23.2109C101.762 22.6861 101.674 22.1625 101.482 21.6733C101.291 21.1841 101.001 20.7398 100.629 20.3684C100.258 19.9969 99.8136 19.7065 99.3244 19.5152C98.8352 19.3239 98.3114 19.2359 97.7865 19.2567C97.2617 19.2359 96.7384 19.3239 96.2492 19.5152C95.76 19.7065 95.3154 19.9969 94.944 20.3684C94.5726 20.7398 94.2824 21.1841 94.0911 21.6733C93.8998 22.1625 93.8115 22.6861 93.8324 23.2109C93.8115 23.7358 93.8998 24.2593 94.0911 24.7485C94.2824 25.2377 94.5726 25.682 94.944 26.0535C95.3154 26.4249 95.76 26.7153 96.2492 26.9066C96.7384 27.0979 97.2617 27.186 97.7865 27.1651C98.3114 27.186 98.8352 27.0979 99.3244 26.9066C99.8136 26.7153 100.258 26.4249 100.629 26.0535C101.001 25.682 101.291 25.2377 101.482 24.7485C101.674 24.2593 101.762 23.7358 101.741 23.2109Z" fill="#333333"/>
<path d="M89.5322 15.965H85.8252V30.4669H89.5322V15.965Z" fill="#333333"/>
<path fill-rule="evenodd" clip-rule="evenodd" d="M117.597 15.965V30.457H114.74L110.035 22.9638V30.457H106.328V15.965H109.204L113.91 23.4581V15.965H117.597Z" fill="#333333"/>
<path fill-rule="evenodd" clip-rule="evenodd" d="M127.522 29.7551V30.457H119.703V15.965H120.474V29.7551H127.522Z" fill="#333333"/>
<path fill-rule="evenodd" clip-rule="evenodd" d="M151.138 25.6725C151.157 26.2883 151.052 26.9016 150.83 27.4763C150.609 28.0511 150.274 28.5756 149.847 29.0195C149.42 29.4633 148.908 29.8174 148.342 30.0609C147.776 30.3043 147.167 30.4324 146.551 30.4374H139.73V15.9452H145.266C145.709 15.9197 146.152 15.9847 146.569 16.1358C146.986 16.287 147.368 16.5211 147.691 16.8244C148.015 17.1276 148.274 17.4936 148.452 17.8998C148.629 18.3061 148.723 18.7442 148.726 19.1876C148.727 19.9012 148.494 20.5955 148.064 21.1647C148.986 21.4958 149.78 22.1101 150.333 22.9198C150.885 23.7294 151.167 24.6929 151.138 25.6725ZM140.501 16.6472V20.9077H146.571C146.828 20.9077 147.056 20.9077 147.263 20.9077C147.717 20.4347 147.969 19.8035 147.965 19.148C147.966 18.8007 147.895 18.457 147.757 18.138C147.62 17.819 147.419 17.5314 147.166 17.2933C146.913 17.0552 146.614 16.8716 146.287 16.7537C145.96 16.6357 145.613 16.586 145.266 16.6077L140.501 16.6472ZM150.387 25.6725C150.411 25.1489 150.328 24.6258 150.144 24.1349C149.96 23.644 149.679 23.1956 149.317 22.8167C148.954 22.4378 148.519 22.1363 148.037 21.9305C147.555 21.7247 147.036 21.6188 146.512 21.6194H140.501V29.7355H146.492C147.015 29.7279 147.532 29.6163 148.012 29.4073C148.492 29.1983 148.926 28.8959 149.289 28.518C149.651 28.14 149.935 27.694 150.123 27.2055C150.312 26.7171 150.401 26.1959 150.387 25.6725Z" fill="#333333"/>
<path fill-rule="evenodd" clip-rule="evenodd" d="M150.288 26.661H151.039C151.039 28.6381 152.631 29.9727 155.27 29.9727C157.524 29.9727 158.997 28.7074 158.997 27.0071C158.997 24.9311 157.129 24.2688 155.201 23.5472C153.006 22.7366 150.664 22.0543 150.664 19.405C150.664 17.2698 152.532 15.7771 154.954 15.7771C157.376 15.7771 159.313 17.3095 159.313 19.593H158.542C158.542 17.8532 157.069 16.5086 154.954 16.5086C152.838 16.5086 151.435 17.8134 151.435 19.405C151.435 21.4711 153.313 22.0938 155.31 22.8451C157.465 23.6755 159.748 24.4171 159.748 27.0071C159.748 29.2807 157.772 30.7339 155.27 30.7339C152.404 30.7339 150.328 29.2411 150.328 26.7006" fill="#333333"/>
<path fill-rule="evenodd" clip-rule="evenodd" d="M84.5006 19.5435H81.3372V30.457H77.6401V19.5435H74.4669V15.965H84.5006V19.5435Z" fill="#333333"/>
<path d="M136.745 26.661H129.143L127.65 30.4867H126.85L132.524 15.9946H133.354L139.048 30.4867H138.228L136.745 26.661ZM136.478 25.9493L132.939 16.8745L129.41 25.9493H136.478Z" fill="#333333"/>
</g>
<defs>
<clipPath id="clip0_401_7383">
<rect width="159.748" height="44" fill="white"/>
</clipPath>
</defs>
</svg>
